<svg xmlns="http://www.w3.org/2000/svg" version="1.1" xmlns:xlink="http://www.w3.org/1999/xlink" xmlns:svgjs="http://svgjs.dev/svgjs" width="1000" height="1125" viewBox="0 0 1000 1125"><g transform="matrix(1,0,0,1,1.7053025658242404e-13,0)"><svg viewBox="0 0 320 360" data-background-color="#444444" preserveAspectRatio="xMidYMid meet" height="1125" width="1000" xmlns="http://www.w3.org/2000/svg" xmlns:xlink="http://www.w3.org/1999/xlink"><g id="tight-bounds" transform="matrix(1,0,0,1,0,0)"><svg viewBox="0 0 320 360" height="360" width="320"><g><svg></svg></g><g><svg viewBox="0 0 320 360" height="360" width="320"><g><path xmlns="http://www.w3.org/2000/svg" d="M20.961 227.22l3.726 4.658-1.863-6.056c-0.466-2.795-3.726 0.466-1.863 1.398M25.153 224.425c1.397 2.329 2.795 4.658 2.795 6.987 0 3.261 2.795 4.658 5.123 5.589-3.261-3.726-5.124-13.974-7.918-12.576M204.017 26.929c7.918 0 15.371-0.932 23.756 0.931 20.495 5.124 37.729 15.371 49.374 29.811l32.606 52.169c1.397 13.042 4.192 27.482 3.726 43.319 3.261 0 2.795-4.658 6.521-5.59-3.726 9.316-5.59 20.961-6.521 34.469-2.329-7.453 0-18.632 0.466-24.687-3.261 5.124-5.124 1.397-5.124-0.932 0.466-3.726-1.397-3.261-2.795-4.658-5.124-4.658-8.384-9.782-12.11-17.7 2.329-6.055 2.795-14.905-4.658-19.563-2.329-1.397-5.124-3.726-6.521-7.453-1.863-5.124-5.124-11.179-4.193-19.097 0.466-2.329-6.987 5.124-11.179 1.863-18.166-12.576-36.332-27.016-58.224-39.127-11.645 0-20.029-4.192-24.221-9.316-3.726-4.658-0.932-10.713 4.658-11.179 3.261 0 6.987-0.932 9.782 0.932 0.466-1.863 2.329-4.192 4.657-4.192M157.904 16.215l0.932 0.466c4.658 0.932 6.987 7.453 12.11 5.124 0 3.261 0.466 6.521-0.466 8.85-1.397 3.726-5.59 3.726-8.85 3.726-31.208-1.863-49.374 11.179-68.471 22.358-5.124 3.261-10.713 5.59-14.906 9.782-20.029 18.632-41.921 35.866-47.045 70.335l-4.192 38.195c-0.466 4.192-5.124 8.384-4.192 13.508l3.26 22.824c-3.261-3.261-5.124 0.932-4.192 2.795 0.466 1.397 2.329 6.055 5.124 1.863 3.726 6.987 7.453 20.495 12.576 26.55 15.837 18.632 36.332 35.4 53.101 52.169 4.192-0.932 7.453-0.932 8.384-3.727 1.397 2.795-1.397 5.59-3.726 6.056 7.453 4.658 15.837 8.85 27.016 9.781 14.44 0.932 27.948 3.261 40.524 6.522 6.521-1.863 13.042-2.795 20.029-3.261 2.329 0 3.726-3.726 6.521-4.658l0.466-4.658c2.795 4.192 2.329-1.397 0.466-4.192 3.261 2.795 4.192 5.124 5.589 6.987 0-1.397 3.726-6.521 3.727-0.466l0.931-6.055c1.397-0.932 1.863 5.124 3.261 0.931 1.397-4.192 4.192-0.932 6.987-2.329-0.932 1.863-0.466 5.59 2.794 3.261l3.727-3.261c2.329 5.59 6.055 3.261 7.918 2.329 20.495-13.042 40.99-28.413 60.553-43.784l-0.466 6.055 2.329-7.453c2.329 2.329 4.192 0.466 5.124-0.931 2.795-4.658 6.521-9.316 12.577-13.508-7.453 20.029-16.303 35.866-27.482 48.908l-4.658 5.59c0 3.261-0.932 7.453-4.658 7.918-1.863 0.466-5.59-0.932-8.384 1.863-1.397 1.863 3.261 5.59-0.466 2.795-3.261-2.329-6.521 0-10.248 0.932-2.795 0.932 1.863 3.726 2.795 5.589 0.932 1.863 1.863 3.726 1.398 6.056l-5.124-5.59c-6.055 3.261-9.782 9.316-14.906 13.974-2.329 1.863-1.397 5.124-1.397 7.918-3.261 0-6.987-0.932-8.85 0.932-1.397 1.863-0.932 4.658-0.932 7.453-4.658-0.466-5.124-7.453-9.315-6.056-4.192 0.932-8.85 1.397-12.577 3.727 2.795 5.59-4.658 2.329-3.726 3.26-6.987-4.192-13.042-7.453-20.495-4.658-15.837-5.124-35.4-2.795-49.84-0.931 0-2.329 0.466-4.658-0.466-5.124-0.932 2.329-3.726 1.397-3.26 1.397-8.85-6.055-17.7-9.782-27.016-14.905-8.384 0.932-16.303-3.261-18.632-5.59-6.521-6.055-13.974-2.795-20.029-4.192-13.042-3.261-17.7-16.769-19.098-26.084-0.932-4.658-4.658-6.521-6.055-6.056-6.055-19.563-15.371-37.263-22.824-55.429-1.863-4.658-1.397-9.316-1.397-14.44 2.329 0.932 4.658 0.466 4.192-2.794-2.329-15.371-7.918-27.016-13.974-38.195 3.261-15.837 3.726-34.469 11.179-48.443 6.521-12.576 18.632-19.098 27.016-29.811 2.795-3.726 2.795-8.85 5.59-12.11 9.316-9.316 18.632-19.098 28.879-27.482 4.658-3.726 10.247 0 17.234-1.397 2.329-8.384 11.645-15.837 20.495-13.508 3.726 0.932 11.179-8.85 13.508-9.782 3.726-1.397 1.863 3.726 1.863 6.987 8.85-6.987 20.961-10.713 32.14-14.906" fill="#ffffff" fill-rule="nonzero" stroke="none" stroke-width="1" stroke-linecap="butt" stroke-linejoin="miter" stroke-miterlimit="10" stroke-dasharray="" stroke-dashoffset="0" font-family="none" font-weight="none" font-size="none" text-anchor="none" style="mix-blend-mode: normal" data-fill-palette-color="tertiary"></path></g><g transform="matrix(1,0,0,1,64,130.0883417813179)"><svg viewBox="0 0 192 99.82331643736421" height="99.82331643736421" width="192"><g><svg viewBox="0 0 192 99.82331643736421" height="99.82331643736421" width="192"><g><svg viewBox="0 0 192 99.82331643736421" height="99.82331643736421" width="192"><g><svg viewBox="0 0 192 99.82331643736421" height="99.82331643736421" width="192"><g id="textblocktransform"><svg viewBox="0 0 192 99.82331643736421" height="99.82331643736421" width="192" id="textblock"><g><svg viewBox="0 0 192 99.82331643736421" height="99.82331643736421" width="192"><g transform="matrix(1,0,0,1,0,0)"><svg width="192" viewBox="3.4000000953674316 -35.599998474121094 69.04000091552734 35.89999771118164" height="99.82331643736421" data-palette-color="#ffffff"><path d="M7.05-25.35L7.05 0 4 0 4-25.35 7.05-25.35ZM7.03-34.98Q7.65-34.35 7.65-33.45 7.65-32.55 7.03-31.95 6.4-31.35 5.5-31.35 4.6-31.35 4-31.95 3.4-32.55 3.4-33.45 3.4-34.35 4-34.98 4.6-35.6 5.5-35.6 6.4-35.6 7.03-34.98ZM29.6-6.5L29.6-6.5Q29.6-3.35 27.42-1.53 25.25 0.3 21.45 0.3L21.45 0.3Q16.85 0.3 14.05-1.2L14.05-1.2 14.05-4.35Q17.4-2.45 21.25-2.45L21.25-2.45Q23.8-2.45 25.12-3.5 26.45-4.55 26.45-6.25L26.45-6.25Q26.45-8.25 25.07-9.35 23.7-10.45 20.55-11.7L20.55-11.7Q17.5-12.9 15.7-14.5 13.9-16.1 13.9-18.9L13.9-18.9Q13.9-21.95 16.15-23.78 18.4-25.6 21.8-25.6L21.8-25.6Q25.9-25.6 28.1-24.45L28.1-24.45 28.1-21.4Q25.75-22.75 21.75-22.75L21.75-22.75Q19.55-22.75 18.27-21.73 17-20.7 17-19.05L17-19.05Q17-18.05 17.37-17.3 17.75-16.55 18.67-15.93 19.6-15.3 20.25-15 20.9-14.7 22.35-14.1L22.35-14.1Q25.85-12.7 27.72-11.03 29.6-9.35 29.6-6.5ZM49.9-6.5L49.9-6.5Q49.9-3.35 47.72-1.53 45.55 0.3 41.75 0.3L41.75 0.3Q37.15 0.3 34.34-1.2L34.34-1.2 34.34-4.35Q37.7-2.45 41.55-2.45L41.55-2.45Q44.09-2.45 45.42-3.5 46.75-4.55 46.75-6.25L46.75-6.25Q46.75-8.25 45.37-9.35 44-10.45 40.84-11.7L40.84-11.7Q37.8-12.9 36-14.5 34.2-16.1 34.2-18.9L34.2-18.9Q34.2-21.95 36.45-23.78 38.7-25.6 42.09-25.6L42.09-25.6Q46.2-25.6 48.4-24.45L48.4-24.45 48.4-21.4Q46.05-22.75 42.05-22.75L42.05-22.75Q39.84-22.75 38.57-21.73 37.3-20.7 37.3-19.05L37.3-19.05Q37.3-18.05 37.67-17.3 38.05-16.55 38.97-15.93 39.9-15.3 40.55-15 41.2-14.7 42.65-14.1L42.65-14.1Q46.15-12.7 48.02-11.03 49.9-9.35 49.9-6.5ZM62.79-2.55L62.79-2.55Q65.79-2.55 67.59-4.2 69.39-5.85 69.39-8.4L69.39-8.4 69.39-12.05 64.44-12.05Q60.89-12.05 59.14-10.68 57.39-9.3 57.39-7.25L57.39-7.25Q57.39-5.15 58.77-3.85 60.14-2.55 62.79-2.55ZM69.39 0L69.39-2.95Q67.29 0.25 62.09 0.25L62.09 0.25Q58.59 0.25 56.37-1.83 54.14-3.9 54.14-7.15L54.14-7.15Q54.14-10.8 56.97-12.83 59.79-14.85 64.44-14.85L64.44-14.85 69.39-14.85 69.39-16Q69.39-19.4 67.94-21.13 66.49-22.85 63.09-22.85L63.09-22.85Q59.14-22.85 55.99-20.7L55.99-20.7 55.99-24Q58.89-25.75 63.14-25.75L63.14-25.75Q72.44-25.75 72.44-16L72.44-16 72.44 0 69.39 0Z" opacity="1" transform="matrix(1,0,0,1,0,0)" fill="#ffffff" class="wordmark-text-0" data-fill-palette-color="primary" id="text-0"></path></svg></g></svg></g></svg></g></svg></g><g></g></svg></g></svg></g></svg></g></svg></g><defs></defs></svg><rect width="320" height="360" fill="none" stroke="none" visibility="hidden"></rect></g></svg></g></svg>